<?xml version="1.0" standalone="no"?>
<!DOCTYPE svg PUBLIC "-//W3C//DTD SVG 20010904//EN"
 "http://www.w3.org/TR/2001/REC-SVG-20010904/DTD/svg10.dtd">
<svg version="1.0" xmlns="http://www.w3.org/2000/svg"
 width="500.000000pt" height="500.000000pt" viewBox="0 0 500.000000 500.000000"
 preserveAspectRatio="xMidYMid meet">
<metadata>
Created by potrace 1.14, written by Peter Selinger 2001-2017
</metadata>
<g transform="translate(0.000000,500.000000) scale(0.100000,-0.100000)"
fill="#000000" stroke="none">
<path d="M2845 3843 c-148 -92 -356 -242 -605 -434 -129 -100 -386 -295 -571
-435 l-337 -253 72 -183 c40 -101 96 -246 126 -323 29 -77 73 -188 98 -246
l45 -106 111 -7 c61 -3 372 -6 691 -5 319 0 699 -2 844 -6 224 -7 263 -6 259
6 -3 8 -31 97 -62 199 -32 102 -102 325 -156 495 -118 372 -176 561 -229 756
-22 80 -72 246 -111 368 -38 122 -70 224 -70 227 0 10 -21 0 -105 -53z"/>
<path d="M3440 3372 c0 -4 27 -99 60 -212 33 -113 86 -295 116 -405 31 -110
58 -204 61 -208 8 -13 87 96 119 164 27 59 29 73 29 174 0 165 -39 258 -156
372 -70 69 -229 149 -229 115z"/>
<path d="M626 2389 c-69 -63 -102 -124 -118 -219 -23 -133 28 -289 130 -401
70 -76 110 -92 236 -91 54 1 101 3 103 6 3 2 -34 100 -82 216 -47 116 -111
280 -141 363 -30 83 -59 157 -63 165 -6 10 -22 1 -65 -39z"/>
<path d="M1440 1657 c-58 -34 -110 -65 -117 -70 -8 -5 2 -36 36 -110 59 -126
277 -542 303 -579 34 -49 59 -40 272 102 108 71 196 135 196 141 0 31 -540
579 -570 578 -8 0 -62 -28 -120 -62z"/>
</g>
</svg>
